<svg xmlns="http://www.w3.org/2000/svg" xmlns:xlink="http://www.w3.org/1999/xlink" preserveAspectRatio="xMidYMid" width="193" height="177" viewBox="0 0 193 177">
  <defs>
    <style>

      .cls-2 {
        stroke: #000000;
        stroke-width: 8px;
        fill: none;
      }
    </style>
  </defs>
  <path d="M97.000,25.000 C97.000,25.000 138.000,4.000 138.000,4.000 C138.000,4.000 162.000,16.000 162.000,16.000 C162.000,16.000 189.000,57.000 189.000,57.000 C189.000,57.000 181.000,96.000 181.000,96.000 C181.000,96.000 97.000,173.000 97.000,173.000 C97.000,173.000 11.000,96.000 11.000,96.000 C11.000,96.000 4.000,57.000 4.000,57.000 C4.000,57.000 33.000,17.000 33.000,17.000 C33.000,17.000 56.000,4.000 56.000,4.000 C56.000,4.000 97.000,25.000 97.000,25.000 Z" id="path-1" class="cls-2" fill-rule="evenodd"/>
</svg>
